<svg xmlns="http://www.w3.org/2000/svg" width="512" height="512" viewBox="0 0 512 512">
  <!-- Outer gear teeth (12 teeth, arranged by rotation) -->
  <g fill="#111827">
    <!-- single tooth template repeated with rotations -->
    <rect x="242" y="28" width="28" height="56" rx="6"></rect>
    <rect x="242" y="28" width="28" height="56" rx="6" transform="rotate(30 256 256)"></rect>
    <rect x="242" y="28" width="28" height="56" rx="6" transform="rotate(60 256 256)"></rect>
    <rect x="242" y="28" width="28" height="56" rx="6" transform="rotate(90 256 256)"></rect>
    <rect x="242" y="28" width="28" height="56" rx="6" transform="rotate(120 256 256)"></rect>
    <rect x="242" y="28" width="28" height="56" rx="6" transform="rotate(150 256 256)"></rect>
    <rect x="242" y="28" width="28" height="56" rx="6" transform="rotate(180 256 256)"></rect>
    <rect x="242" y="28" width="28" height="56" rx="6" transform="rotate(210 256 256)"></rect>
    <rect x="242" y="28" width="28" height="56" rx="6" transform="rotate(240 256 256)"></rect>
    <rect x="242" y="28" width="28" height="56" rx="6" transform="rotate(270 256 256)"></rect>
    <rect x="242" y="28" width="28" height="56" rx="6" transform="rotate(300 256 256)"></rect>
    <rect x="242" y="28" width="28" height="56" rx="6" transform="rotate(330 256 256)"></rect>
  </g>

  <!-- Outer ring -->
  <circle cx="256" cy="256" r="176" fill="none" stroke="#111827" stroke-width="28" stroke-linejoin="round"></circle>

  <!-- Inner ring / border to create the 'hole' effect -->
  <circle cx="256" cy="256" r="112" fill="#ffffff" stroke="#111827" stroke-width="8"></circle>

  <!-- Tree: trunk + canopy -->
  <g transform="translate(0,0)">
    <!-- trunk -->
    <rect x="244" y="270" width="24" height="72" rx="6" fill="#7B5A3A"></rect>
    <!-- canopy (three circles for stylized tree) -->
    <circle cx="256" cy="220" r="48" fill="#6BBF59" stroke="#111827" stroke-width="6"></circle>
    <circle cx="224" cy="244" r="36" fill="#6BBF59" stroke="#111827" stroke-width="5"></circle>
    <circle cx="288" cy="244" r="36" fill="#6BBF59" stroke="#111827" stroke-width="5"></circle>
  </g>
</svg>
